HIERARCHY
ROOT Hips
{
	OFFSET -3.958830 18.904000 13.208200
	CHANNELS 6 Xposition Yposition Zposition Zrotation Yrotation Xrotation 
	JOINT LHipJoint
	{
		OFFSET 0.000000 0.000000 0.000000
		CHANNELS 3 Zrotation Yrotation Xrotation
		JOINT LeftUpLeg
		{
			OFFSET 1.800000 -1.400000 0.085000
			CHANNELS 3 Zrotation Yrotation Xrotation
			JOINT LeftLeg
			{
				OFFSET 2.215000 -6.000000 0.000000
				CHANNELS 3 Zrotation Yrotation Xrotation
				JOINT LeftFoot
				{
					OFFSET 2.500000 -6.900000 0.000000
					CHANNELS 3 Zrotation Yrotation Xrotation
					JOINT LeftToeBase
					{
						OFFSET 0.200000 -0.500000 1.950000
						CHANNELS 3 Zrotation Yrotation Xrotation
						End Site
						{
							OFFSET 0.000000 0.000000 0.000000
						}
					}
				}
			}
		}
	}
	JOINT RHipJoint
	{
		OFFSET 0.000000 0.000000 0.000000
		CHANNELS 3 Zrotation Yrotation Xrotation
		JOINT RightUpLeg
		{
			OFFSET -1.800000 -1.400000 0.085000
			CHANNELS 3 Zrotation Yrotation Xrotation
			JOINT RightLeg
			{
				OFFSET -2.215000 -6.000000 0.000000
				CHANNELS 3 Zrotation Yrotation Xrotation
				JOINT RightFoot
				{
					OFFSET -2.500000 -6.900000 0.000000
					CHANNELS 3 Zrotation Yrotation Xrotation
					JOINT RightToeBase
					{
						OFFSET -0.200000 -0.500000 1.950000
						CHANNELS 3 Zrotation Yrotation Xrotation
						End Site
						{
							OFFSET 0.000000 0.000000 0.000000
						}
					}
				}
			}
		}
	}
	JOINT LowerBack
	{
		OFFSET 0.000000 0.000000 0.000000
		CHANNELS 3 Zrotation Yrotation Xrotation
		JOINT Spine
		{
			OFFSET -0.087000 1.940000 -0.288900
			CHANNELS 3 Zrotation Yrotation Xrotation
			JOINT Spine1
			{
				OFFSET 0.000000 1.950000 0.060000
				CHANNELS 3 Zrotation Yrotation Xrotation
				JOINT Neck
				{
					OFFSET 0.000000 0.000000 0.000000
					CHANNELS 3 Zrotation Yrotation Xrotation
					JOINT Neck1
					{
						OFFSET 0.000000 1.600000 0.340000
						CHANNELS 3 Zrotation Yrotation Xrotation
						JOINT Head
						{
							OFFSET 0.000000 1.667000 -0.240000
							CHANNELS 3 Zrotation Yrotation Xrotation
							End Site
							{
								OFFSET 0.000000 0.000000 0.000000
							}
						}
					}
				}
				JOINT LeftShoulder
				{
					OFFSET 0.000000 0.000000 0.000000
					CHANNELS 3 Zrotation Yrotation Xrotation
					JOINT LeftArm
					{
						OFFSET 2.700000 1.550000 -0.730000
						CHANNELS 3 Zrotation Yrotation Xrotation
						JOINT LeftForeArm
						{
							OFFSET 5.450000 0.000000 0.000000
							CHANNELS 3 Zrotation Yrotation Xrotation
							JOINT LeftHand
							{
								OFFSET 3.450000 0.000000 0.000000
								CHANNELS 3 Zrotation Yrotation Xrotation
								JOINT LeftHandIndex1
								{
									OFFSET 0.750000 0.000000 0.000000
									CHANNELS 3 Zrotation Yrotation Xrotation
									End Site
									{
										OFFSET 0.000000 0.000000 0.000000
									}
								}
							}
						}
					}
				}
				JOINT RightShoulder
				{
					OFFSET 0.000000 0.000000 0.000000
					CHANNELS 3 Zrotation Yrotation Xrotation
					JOINT RightArm
					{
						OFFSET -2.700000 1.550000 -0.730000
						CHANNELS 3 Zrotation Yrotation Xrotation
						JOINT RightForeArm
						{
							OFFSET -5.450000 0.000000 0.000000
							CHANNELS 3 Zrotation Yrotation Xrotation
							JOINT RightHand
							{
								OFFSET -3.450000 0.000000 0.000000
								CHANNELS 3 Zrotation Yrotation Xrotation
								JOINT RightHandIndex1
								{
									OFFSET -0.750000 0.000000 0.000000
									CHANNELS 3 Zrotation Yrotation Xrotation
									End Site
									{
										OFFSET 0.000000 0.000000 0.000000
									}
								}
							}
						}
					}
				}
			}
		}
	}
}
MOTION
Frames: 7
Frame Time: 0.016667
1.853030 15.679050 -2.765520 9.130500 68.214462 2.631993 -15.811823 11.152643 6.050501 24.173048 -2.138538 -22.354339 -74.415531 33.732568 21.379097 2.309908 12.175618 0.410723 0.377460 0.282220 0.380440 17.841613 -8.179834 3.748089 -6.171407 10.570197 -31.408943 20.454161 -17.472739 47.101542 -1.470050 -8.266391 1.307992 0.051920 -0.364430 0.104790 -3.084190 -2.847872 -10.811748 8.480470 -3.457565 25.663482 -4.066083 0.888556 5.044635 3.713917 0.611964 -27.012198 -4.097622 -5.539546 52.299894 2.014510 -8.308170 -16.083570 -39.639365 -35.791151 12.672173 -28.712999 -10.784791 -1.265975 8.538776 -5.624027 -0.865254 -3.296297 2.980004 0.548410 -0.397420 0.433250 -0.010390 31.716435 40.646763 15.761427 27.295677 25.299775 -4.062027 -4.062587 19.437253 -0.350008 2.508453 -1.073186 0.089760 0.047160 -0.119490 -0.095660 
1.924740 15.644310 -2.763040 9.873300 66.945745 4.104322 -15.822646 11.079048 5.994210 26.086673 -2.070077 -20.857968 -78.059797 35.782301 21.140049 2.366363 12.337526 0.384132 0.372950 0.282400 0.364710 17.858773 -8.168651 3.727662 -6.653582 10.258225 -32.346409 19.793433 -18.071727 48.668236 -1.509535 -8.568387 1.212633 0.064600 -0.330000 0.111550 -3.127214 -2.768499 -10.774539 8.341185 -3.311454 25.043211 -4.352092 0.918502 5.372801 3.693524 0.800379 -25.983369 -3.743284 -5.590450 49.992559 2.502280 -8.090840 -16.128870 -36.578365 -36.415667 12.670273 -25.746620 -14.745076 -1.981706 7.055645 -11.564591 -1.099789 -3.261922 3.008017 0.524580 -0.367830 0.408620 -0.004040 28.665394 41.042553 14.703580 24.071910 24.692548 -5.783543 -0.393736 28.113122 0.463984 2.305089 -1.155786 0.081930 0.053770 -0.110570 -0.089500 
2.001230 15.641120 -2.754600 10.580130 65.911396 5.527615 -15.830637 11.111270 5.909906 28.067209 -2.060114 -18.816625 -80.333106 37.826515 21.369492 2.412662 12.438999 0.370128 0.365400 0.274830 0.347000 17.856415 -8.222806 3.665655 -7.274302 9.634831 -32.439609 19.631876 -18.452395 48.928206 -1.515945 -8.652890 1.187903 0.060630 -0.311490 0.104600 -3.205968 -2.784206 -10.680494 8.714641 -3.551134 24.675507 -4.692726 0.873792 4.101461 3.717232 0.051507 -24.618393 -5.417605 -4.872729 48.851053 3.534840 -8.144610 -16.689690 -33.329389 -36.161997 11.922449 -23.113126 -16.310489 -3.204719 4.533031 -20.441373 -0.943520 -3.136437 3.071580 0.524170 -0.369340 0.398630 0.002990 25.646585 41.109992 13.552202 20.872525 22.803950 -7.156202 6.240575 37.537390 2.707221 2.167245 -1.277229 0.075430 0.065450 -0.105560 -0.081140 
2.074230 15.658620 -2.749960 11.882410 65.287714 7.476670 -15.827112 11.181201 5.747946 29.114417 -2.373928 -16.131839 -79.974630 39.071175 22.201679 2.419991 12.489825 0.351964 0.364540 0.271000 0.350420 17.852158 -8.317641 3.646335 -7.766272 9.186731 -32.938175 18.380370 -18.769744 50.683679 -1.556602 -8.892883 1.108432 0.056440 -0.315470 0.108070 -3.313807 -2.764631 -10.561895 8.963018 -3.839650 24.171365 -5.619214 0.748924 2.726146 3.793180 -0.048625 -23.470370 -5.704745 -4.570775 48.147636 3.635980 -7.735330 -17.044820 -29.958097 -36.071101 10.923610 -19.178742 -16.818596 -4.123686 -0.175197 -29.545247 0.267515 -3.032845 3.166280 0.529510 -0.370580 0.400950 0.000240 22.113017 40.870935 12.538107 17.531692 21.439810 -7.341918 12.223598 44.516731 5.487064 2.125615 -1.385861 0.075320 0.058610 -0.105690 -0.086060 
2.148200 15.695080 -2.722930 14.300012 65.002533 10.152397 -15.811601 11.356782 5.464277 29.579737 -3.108841 -12.411319 -76.150056 42.756986 26.708853 2.452245 12.749182 0.267524 0.378790 0.293110 0.359270 17.831335 -8.562218 3.611403 -8.110460 8.498608 -33.180088 16.383599 -18.386094 52.003336 -1.552544 -8.931688 1.082000 0.066110 -0.326940 0.116960 -3.382956 -2.621472 -10.348022 7.953142 -3.596519 22.982057 -5.759178 0.450993 2.092653 3.646110 0.057655 -21.905555 -5.454737 -4.882872 47.988132 3.724630 -7.732560 -17.891360 -25.363939 -35.552807 9.616235 -15.191486 -17.047402 -4.344374 -6.556716 -39.386897 2.842084 -2.977608 3.272611 0.535740 -0.375740 0.416260 -0.000280 17.836401 39.667938 11.773581 14.124568 19.376312 -7.655264 18.966320 52.839137 9.370423 2.114639 -1.526103 0.084810 0.055290 -0.110640 -0.086070 
2.231140 15.749020 -2.695070 16.323433 64.531725 12.938448 -15.796872 11.481516 5.259869 29.804313 -3.904998 -8.683284 -69.540507 44.846754 31.778136 2.483287 13.034389 0.195699 0.357730 0.269330 0.338630 17.827037 -8.777011 3.542299 -7.969089 7.901419 -33.545626 14.121075 -17.183697 52.089888 -1.453462 -8.651035 1.167907 0.053260 -0.298800 0.115350 -3.469282 -2.495364 -10.142142 7.267425 -3.458592 21.496925 -5.851506 0.113031 1.137938 3.256399 0.126497 -20.322970 -5.290598 -4.872364 47.338032 4.748490 -7.713610 -17.857240 -21.108215 -34.396028 8.337212 -10.981963 -17.624240 -3.829667 -12.601812 -48.179736 6.448593 -3.006302 3.345311 0.530760 -0.362540 0.400860 0.002710 14.392741 37.545559 11.369452 10.726950 17.222101 -7.356032 26.032483 61.486410 14.664097 2.161836 -1.635918 0.074200 0.063550 -0.100300 -0.080440 
2.334270 15.823280 -2.647530 18.715375 64.261054 16.369867 -15.814039 11.637791 5.136104 29.731217 -4.913879 -4.560625 -58.985019 45.791770 39.045488 2.560219 13.537991 0.075298 0.329100 0.241040 0.301270 17.791726 -9.007708 3.394904 -7.168720 7.147382 -33.485186 11.552798 -14.916323 49.978069 -1.234356 -7.866734 1.414266 0.035820 -0.263810 0.116910 -3.486059 -2.470802 -9.926565 6.097377 -3.264936 19.274168 -5.334864 -0.314401 0.527802 2.796801 -0.178980 -19.045133 -5.859494 -4.675901 45.856369 5.669500 -7.798670 -17.625950 -17.469943 -32.791344 7.110574 -7.084313 -18.860913 -2.839297 -16.622221 -54.558162 9.842569 -3.062686 3.395816 0.507460 -0.343150 0.374840 0.010010 11.848936 35.256401 11.408147 6.754731 14.672488 -6.802519 31.101340 70.065045 20.231937 2.236854 -1.716031 0.070630 0.060940 -0.088850 -0.064880 
